<svg xmlns="http://www.w3.org/2000/svg" width="340" height="200" viewBox="0 0 340 200"><style>* {
          font-family: 'Segoe UI', Ubuntu, "Helvetica Neue", Sans-Serif
        }</style><rect x="1" y="1" rx="5" ry="5" height="99%" width="99.41176470588235%" stroke="#000000" stroke-width="1" fill="#242424" stroke-opacity="0"></rect><text x="30" y="40" style="font-size: 22px; fill: #ba5f17;">Top Languages by Commit</text><g transform="translate(0,40)"><g transform="translate(40,0)"><rect y="18" width="14" height="14" fill="#3178c6" stroke="#242424" style="stroke-width: 1px;"></rect><rect y="43.2" width="14" height="14" fill="#3572A5" stroke="#242424" style="stroke-width: 1px;"></rect><rect y="68.4" width="14" height="14" fill="#f1e05a" stroke="#242424" style="stroke-width: 1px;"></rect><rect y="93.60000000000002" width="14" height="14" fill="#244776" stroke="#242424" style="stroke-width: 1px;"></rect><rect y="118.80000000000001" width="14" height="14" fill="#701516" stroke="#242424" style="stroke-width: 1px;"></rect><text x="16.8" y="30" style="fill: #bebebe; font-size: 14px;">TypeScript</text><text x="16.8" y="55.2" style="fill: #bebebe; font-size: 14px;">Python</text><text x="16.8" y="80.4" style="fill: #bebebe; font-size: 14px;">JavaScript</text><text x="16.8" y="105.60000000000002" style="fill: #bebebe; font-size: 14px;">CoffeeScript</text><text x="16.8" y="130.8" style="fill: #bebebe; font-size: 14px;">Ruby</text></g><g transform="translate( 230, 80 )"><g class="arc"><path d="M3.67394039744206e-15,-60A60,60,0,1,1,-53.439705724564654,-27.27998995732827L-31.173161672662715,-15.913327475108156A35,35,0,1,0,2.1431318985078682e-15,-35Z" style="fill: #3178c6; stroke-width: 2px;" stroke="#242424"></path></g><g class="arc"><path d="M-53.439705724564654,-27.27998995732827A60,60,0,0,1,-33.627028244564734,-49.69127661309624L-19.615766475996097,-28.986578024306144A35,35,0,0,0,-31.173161672662715,-15.913327475108156Z" style="fill: #3572A5; stroke-width: 2px;" stroke="#242424"></path></g><g class="arc"><path d="M-33.627028244564734,-49.69127661309624A60,60,0,0,1,-10.50855586707979,-59.072584619165454L-6.129990922463211,-34.45900769451318A35,35,0,0,0,-19.615766475996097,-28.986578024306144Z" style="fill: #f1e05a; stroke-width: 2px;" stroke="#242424"></path></g><g class="arc"><path d="M-10.50855586707979,-59.072584619165454A60,60,0,0,1,-4.003691747964193,-59.86627140875974L-2.3354868529791126,-34.92199165510984A35,35,0,0,0,-6.129990922463211,-34.45900769451318Z" style="fill: #244776; stroke-width: 2px;" stroke="#242424"></path></g><g class="arc"><path d="M-4.003691747964193,-59.86627140875974A60,60,0,0,1,-1.1021821192326178e-14,-60L-6.429395695523604e-15,-35A35,35,0,0,0,-2.3354868529791126,-34.92199165510984Z" style="fill: #701516; stroke-width: 2px;" stroke="#242424"></path></g></g></g></svg>