<svg xmlns="http://www.w3.org/2000/svg" width="340" height="200" viewBox="0 0 340 200"><style>* {
          font-family: 'Segoe UI', Ubuntu, "Helvetica Neue", Sans-Serif
        }</style><g class="gpsc-root"><rect x="1" y="1" rx="5" ry="5" height="99%" width="99.41176470588235%" stroke="#2c292d" stroke-width="1" fill="#2c292d" stroke-opacity="1"></rect><text x="30" y="40" class="gpsc-item" style="--gpsc-i: 0; font-size: 22px; fill: #eb1f6a;">Top Languages by Commit</text><g transform="translate(0,40)"><g transform="translate(40,0)"><rect y="18" width="14" height="14" class="gpsc-item" style="--gpsc-i: 0; stroke-width: 1px;" fill="#3178c6" stroke="#2c292d"></rect><rect y="43.2" width="14" height="14" class="gpsc-item" style="--gpsc-i: 1; stroke-width: 1px;" fill="#f1e05a" stroke="#2c292d"></rect><rect y="68.4" width="14" height="14" class="gpsc-item" style="--gpsc-i: 2; stroke-width: 1px;" fill="#3572A5" stroke="#2c292d"></rect><rect y="93.60000000000002" width="14" height="14" class="gpsc-item" style="--gpsc-i: 3; stroke-width: 1px;" fill="#244776" stroke="#2c292d"></rect><rect y="118.80000000000001" width="14" height="14" class="gpsc-item" style="--gpsc-i: 4; stroke-width: 1px;" fill="#701516" stroke="#2c292d"></rect><text x="16.8" y="30" class="gpsc-item" style="--gpsc-i: 0; fill: #ffffff; font-size: 14px;">TypeScript</text><text x="16.8" y="55.2" class="gpsc-item" style="--gpsc-i: 1; fill: #ffffff; font-size: 14px;">JavaScript</text><text x="16.8" y="80.4" class="gpsc-item" style="--gpsc-i: 2; fill: #ffffff; font-size: 14px;">Python</text><text x="16.8" y="105.60000000000002" class="gpsc-item" style="--gpsc-i: 3; fill: #ffffff; font-size: 14px;">CoffeeScript</text><text x="16.8" y="130.8" class="gpsc-item" style="--gpsc-i: 4; fill: #ffffff; font-size: 14px;">Ruby</text></g><g transform="translate( 230, 80 )"><g class="arc" style="--gpsc-i: 0;"><path d="M3.67394039744206e-15,-60A60,60,0,1,1,-46.343606436103514,-38.10866230262543L-27.03377042106038,-22.230053009864836A35,35,0,1,0,2.1431318985078682e-15,-35Z" style="fill: #3178c6; stroke-width: 2px;" stroke="#2c292d"></path></g><g class="arc" style="--gpsc-i: 1;"><path d="M-46.343606436103514,-38.10866230262543A60,60,0,0,1,-25.31010192372372,-54.40035607062436L-14.76422612217217,-31.733541041197544A35,35,0,0,0,-27.03377042106038,-22.230053009864836Z" style="fill: #f1e05a; stroke-width: 2px;" stroke="#2c292d"></path></g><g class="arc" style="--gpsc-i: 2;"><path d="M-25.31010192372372,-54.40035607062436A60,60,0,0,1,-6.750984631933982,-59.61899199499595L-3.9380743686281563,-34.777745330414305A35,35,0,0,0,-14.76422612217217,-31.733541041197544Z" style="fill: #3572A5; stroke-width: 2px;" stroke="#2c292d"></path></g><g class="arc" style="--gpsc-i: 3;"><path d="M-6.750984631933982,-59.61899199499595A60,60,0,0,1,-2.565370150113341,-59.94513221265683L-1.4964659208994489,-34.967993790716484A35,35,0,0,0,-3.9380743686281563,-34.777745330414305Z" style="fill: #244776; stroke-width: 2px;" stroke="#2c292d"></path></g><g class="arc" style="--gpsc-i: 4;"><path d="M-2.565370150113341,-59.94513221265683A60,60,0,0,1,-1.1021821192326178e-14,-60L-6.429395695523604e-15,-35A35,35,0,0,0,-1.4964659208994489,-34.967993790716484Z" style="fill: #701516; stroke-width: 2px;" stroke="#2c292d"></path></g></g></g></g></svg>