<svg xmlns="http://www.w3.org/2000/svg" width="340" height="200" viewBox="0 0 340 200"><style>* {
          font-family: 'Segoe UI', Ubuntu, "Helvetica Neue", Sans-Serif
        }</style><rect x="1" y="1" rx="5" ry="5" height="99%" width="99.41176470588235%" stroke="#2c292d" stroke-width="1" fill="#2c292d" stroke-opacity="1"></rect><text x="30" y="40" style="font-size: 22px; fill: #eb1f6a;">Top Languages by Commit</text><g transform="translate(0,40)"><g transform="translate(40,0)"><rect y="18" width="14" height="14" fill="#3178c6" stroke="#2c292d" style="stroke-width: 1px;"></rect><rect y="43.2" width="14" height="14" fill="#3572A5" stroke="#2c292d" style="stroke-width: 1px;"></rect><rect y="68.4" width="14" height="14" fill="#f1e05a" stroke="#2c292d" style="stroke-width: 1px;"></rect><rect y="93.60000000000002" width="14" height="14" fill="#244776" stroke="#2c292d" style="stroke-width: 1px;"></rect><rect y="118.80000000000001" width="14" height="14" fill="#701516" stroke="#2c292d" style="stroke-width: 1px;"></rect><text x="16.8" y="30" style="fill: #ffffff; font-size: 14px;">TypeScript</text><text x="16.8" y="55.2" style="fill: #ffffff; font-size: 14px;">Python</text><text x="16.8" y="80.4" style="fill: #ffffff; font-size: 14px;">JavaScript</text><text x="16.8" y="105.60000000000002" style="fill: #ffffff; font-size: 14px;">CoffeeScript</text><text x="16.8" y="130.8" style="fill: #ffffff; font-size: 14px;">Ruby</text></g><g transform="translate( 230, 80 )"><g class="arc"><path d="M3.67394039744206e-15,-60A60,60,0,1,1,-56.37770918170951,-20.53177798980369L-32.886997022663884,-11.976870494052152A35,35,0,1,0,2.1431318985078682e-15,-35Z" style="fill: #3178c6; stroke-width: 2px;" stroke="#2c292d"></path></g><g class="arc"><path d="M-56.37770918170951,-20.53177798980369A60,60,0,0,1,-36.852762761380085,-47.34843056378361L-21.49744494413838,-27.61991782887377A35,35,0,0,0,-32.886997022663884,-11.976870494052152Z" style="fill: #3572A5; stroke-width: 2px;" stroke="#2c292d"></path></g><g class="arc"><path d="M-36.852762761380085,-47.34843056378361A60,60,0,0,1,-11.668184098557163,-58.85451112567479L-6.806440724158345,-34.33179815664363A35,35,0,0,0,-21.49744494413838,-27.61991782887377Z" style="fill: #f1e05a; stroke-width: 2px;" stroke="#2c292d"></path></g><g class="arc"><path d="M-11.668184098557163,-58.85451112567479A60,60,0,0,1,-4.450154981710664,-59.83474008165119L-2.595923739331221,-34.903598380963196A35,35,0,0,0,-6.806440724158345,-34.33179815664363Z" style="fill: #244776; stroke-width: 2px;" stroke="#2c292d"></path></g><g class="arc"><path d="M-4.450154981710664,-59.83474008165119A60,60,0,0,1,-1.1021821192326178e-14,-60L-6.429395695523604e-15,-35A35,35,0,0,0,-2.595923739331221,-34.903598380963196Z" style="fill: #701516; stroke-width: 2px;" stroke="#2c292d"></path></g></g></g></svg>