<svg xmlns="http://www.w3.org/2000/svg" width="340" height="200" viewBox="0 0 340 200"><style>* {
          font-family: 'Segoe UI', Ubuntu, "Helvetica Neue", Sans-Serif
        }</style><rect x="1" y="1" rx="5" ry="5" height="99%" width="99.41176470588235%" stroke="#000000" stroke-width="1" fill="#1f2430" stroke-opacity="0"></rect><text x="30" y="40" style="font-size: 22px; fill: #f4cd7c;">Top Languages by Commit</text><g transform="translate(0,40)"><g transform="translate(40,0)"><rect y="18" width="14" height="14" fill="#3178c6" stroke="#1f2430" style="stroke-width: 1px;"></rect><rect y="43.2" width="14" height="14" fill="#f1e05a" stroke="#1f2430" style="stroke-width: 1px;"></rect><rect y="68.4" width="14" height="14" fill="#3572A5" stroke="#1f2430" style="stroke-width: 1px;"></rect><rect y="93.60000000000002" width="14" height="14" fill="#e34c26" stroke="#1f2430" style="stroke-width: 1px;"></rect><rect y="118.80000000000001" width="14" height="14" fill="#244776" stroke="#1f2430" style="stroke-width: 1px;"></rect><text x="16.8" y="30" style="fill: #c7c8c2; font-size: 14px;">TypeScript</text><text x="16.8" y="55.2" style="fill: #c7c8c2; font-size: 14px;">JavaScript</text><text x="16.8" y="80.4" style="fill: #c7c8c2; font-size: 14px;">Python</text><text x="16.8" y="105.60000000000002" style="fill: #c7c8c2; font-size: 14px;">HTML</text><text x="16.8" y="130.8" style="fill: #c7c8c2; font-size: 14px;">CoffeeScript</text></g><g transform="translate( 230, 80 )"><g class="arc"><path d="M3.67394039744206e-15,-60A60,60,0,1,1,-57.418487354704595,-17.410264498209905L-33.49411762357768,-10.155987623955777A35,35,0,1,0,2.1431318985078682e-15,-35Z" style="fill: #3178c6; stroke-width: 2px;" stroke="#1f2430"></path></g><g class="arc"><path d="M-57.418487354704595,-17.410264498209905A60,60,0,0,1,-41.32469064165127,-43.50022923355484L-24.106069540963244,-25.375133719573657A35,35,0,0,0,-33.49411762357768,-10.155987623955777Z" style="fill: #f1e05a; stroke-width: 2px;" stroke="#1f2430"></path></g><g class="arc"><path d="M-41.32469064165127,-43.50022923355484A60,60,0,0,1,-20.972704244632567,-56.21517301109346L-12.234077476035665,-32.79218425647119A35,35,0,0,0,-24.106069540963244,-25.375133719573657Z" style="fill: #3572A5; stroke-width: 2px;" stroke="#1f2430"></path></g><g class="arc"><path d="M-20.972704244632567,-56.21517301109346A60,60,0,0,1,-8.179816399164944,-59.43980655819762L-4.77155956617955,-34.67322049228194A35,35,0,0,0,-12.234077476035665,-32.79218425647119Z" style="fill: #e34c26; stroke-width: 2px;" stroke="#1f2430"></path></g><g class="arc"><path d="M-8.179816399164944,-59.43980655819762A60,60,0,0,1,-1.1021821192326178e-14,-60L-6.429395695523604e-15,-35A35,35,0,0,0,-4.77155956617955,-34.67322049228194Z" style="fill: #244776; stroke-width: 2px;" stroke="#1f2430"></path></g></g></g></svg>