<svg xmlns="http://www.w3.org/2000/svg" width="340" height="200" viewBox="0 0 340 200"><style>* {
          font-family: 'Segoe UI', Ubuntu, "Helvetica Neue", Sans-Serif
        }</style><rect x="1" y="1" rx="5" ry="5" height="99%" width="99.41176470588235%" stroke="#000000" stroke-width="1" fill="#1b2932" stroke-opacity="0"></rect><text x="30" y="40" style="font-size: 22px; fill: #d3b692;">Top Languages by Repo</text><g transform="translate(0,40)"><g transform="translate(40,0)"><rect y="18" width="14" height="14" fill="#3178c6" stroke="#1b2932" style="stroke-width: 1px;"></rect><rect y="43.2" width="14" height="14" fill="#f1e05a" stroke="#1b2932" style="stroke-width: 1px;"></rect><rect y="68.4" width="14" height="14" fill="#701516" stroke="#1b2932" style="stroke-width: 1px;"></rect><rect y="93.60000000000002" width="14" height="14" fill="#663399" stroke="#1b2932" style="stroke-width: 1px;"></rect><rect y="118.80000000000001" width="14" height="14" fill="#41b883" stroke="#1b2932" style="stroke-width: 1px;"></rect><text x="16.8" y="30" style="fill: #c5cdd3; font-size: 14px;">TypeScript</text><text x="16.8" y="55.2" style="fill: #c5cdd3; font-size: 14px;">JavaScript</text><text x="16.8" y="80.4" style="fill: #c5cdd3; font-size: 14px;">Ruby</text><text x="16.8" y="105.60000000000002" style="fill: #c5cdd3; font-size: 14px;">CSS</text><text x="16.8" y="130.8" style="fill: #c5cdd3; font-size: 14px;">Vue</text></g><g transform="translate( 230, 80 )"><g class="arc"><path d="M3.67394039744206e-15,-60A60,60,0,1,1,-1.089509823364813,59.9901072539864L-0.6355473969628076,34.99422923149206A35,35,0,1,0,2.1431318985078682e-15,-35Z" style="fill: #3178c6; stroke-width: 2px;" stroke="#1b2932"></path></g><g class="arc"><path d="M-1.089509823364813,59.9901072539864A60,60,0,0,1,-49.850311333485834,-33.39081400556946L-29.079348277866735,-19.477974836582188A35,35,0,0,0,-0.6355473969628076,34.99422923149206Z" style="fill: #f1e05a; stroke-width: 2px;" stroke="#1b2932"></path></g><g class="arc"><path d="M-49.850311333485834,-33.39081400556946A60,60,0,0,1,-36.48965804799892,-47.62882378917317L-21.285633861332705,-27.783480543684348A35,35,0,0,0,-29.079348277866735,-19.477974836582188Z" style="fill: #701516; stroke-width: 2px;" stroke="#1b2932"></path></g><g class="arc"><path d="M-36.48965804799892,-47.62882378917317A60,60,0,0,1,-19.264871822174324,-56.82310017655842L-11.237841896268355,-33.14680843632574A35,35,0,0,0,-21.285633861332705,-27.783480543684348Z" style="fill: #663399; stroke-width: 2px;" stroke="#1b2932"></path></g><g class="arc"><path d="M-19.264871822174324,-56.82310017655842A60,60,0,0,1,-6.431252637433369e-14,-60L-3.7515640385027985e-14,-35A35,35,0,0,0,-11.237841896268355,-33.14680843632574Z" style="fill: #41b883; stroke-width: 2px;" stroke="#1b2932"></path></g></g></g></svg>