<svg xmlns="http://www.w3.org/2000/svg" width="340" height="200" viewBox="0 0 340 200"><style>* {
          font-family: 'Segoe UI', Ubuntu, "Helvetica Neue", Sans-Serif
        }</style><rect x="1" y="1" rx="5" ry="5" height="99%" width="99.41176470588235%" stroke="#000000" stroke-width="1" fill="#f5e1c0" stroke-opacity="0"></rect><text x="30" y="40" style="font-size: 22px; fill: #86092c;">Top Languages by Commit</text><g transform="translate(0,40)"><g transform="translate(40,0)"><rect y="18" width="14" height="14" fill="#3178c6" stroke="#f5e1c0" style="stroke-width: 1px;"></rect><rect y="43.2" width="14" height="14" fill="#f1e05a" stroke="#f5e1c0" style="stroke-width: 1px;"></rect><rect y="68.4" width="14" height="14" fill="#3572A5" stroke="#f5e1c0" style="stroke-width: 1px;"></rect><rect y="93.60000000000002" width="14" height="14" fill="#244776" stroke="#f5e1c0" style="stroke-width: 1px;"></rect><rect y="118.80000000000001" width="14" height="14" fill="#701516" stroke="#f5e1c0" style="stroke-width: 1px;"></rect><text x="16.8" y="30" style="fill: #574038; font-size: 14px;">TypeScript</text><text x="16.8" y="55.2" style="fill: #574038; font-size: 14px;">JavaScript</text><text x="16.8" y="80.4" style="fill: #574038; font-size: 14px;">Python</text><text x="16.8" y="105.60000000000002" style="fill: #574038; font-size: 14px;">CoffeeScript</text><text x="16.8" y="130.8" style="fill: #574038; font-size: 14px;">Ruby</text></g><g transform="translate( 230, 80 )"><g class="arc"><path d="M3.67394039744206e-15,-60A60,60,0,1,1,-43.40120718094298,-41.428676242873884L-25.317370855550074,-24.1667278083431A35,35,0,1,0,2.1431318985078682e-15,-35Z" style="fill: #3178c6; stroke-width: 2px;" stroke="#f5e1c0"></path></g><g class="arc"><path d="M-43.40120718094298,-41.428676242873884A60,60,0,0,1,-26.251380627414324,-53.95243289375017L-15.313305365991688,-31.472252521354267A35,35,0,0,0,-25.317370855550074,-24.1667278083431Z" style="fill: #f1e05a; stroke-width: 2px;" stroke="#f5e1c0"></path></g><g class="arc"><path d="M-26.251380627414324,-53.95243289375017A60,60,0,0,1,-7.019117293842849,-59.588018866339866L-4.094485088074995,-34.75967767203159A35,35,0,0,0,-15.313305365991688,-31.472252521354267Z" style="fill: #3572A5; stroke-width: 2px;" stroke="#f5e1c0"></path></g><g class="arc"><path d="M-7.019117293842849,-59.588018866339866A60,60,0,0,1,-2.667654626533617,-59.94066748705367L-1.5561318654779435,-34.965389367447976A35,35,0,0,0,-4.094485088074995,-34.75967767203159Z" style="fill: #244776; stroke-width: 2px;" stroke="#f5e1c0"></path></g><g class="arc"><path d="M-2.667654626533617,-59.94066748705367A60,60,0,0,1,-1.1760323155634122e-13,-60L-6.860188507453237e-14,-35A35,35,0,0,0,-1.5561318654779435,-34.965389367447976Z" style="fill: #701516; stroke-width: 2px;" stroke="#f5e1c0"></path></g></g></g></svg>