<svg xmlns="http://www.w3.org/2000/svg" width="340" height="200" viewBox="0 0 340 200"><style>* {
          font-family: 'Segoe UI', Ubuntu, "Helvetica Neue", Sans-Serif
        }</style><rect x="1" y="1" rx="5" ry="5" height="99%" width="99.41176470588235%" stroke="#fdf6e3" stroke-width="1" fill="#fdf6e3" stroke-opacity="1"></rect><text x="30" y="40" style="font-size: 22px; fill: #268bd2;">Top Languages by Commit</text><g transform="translate(0,40)"><g transform="translate(40,0)"><rect y="18" width="14" height="14" fill="#3178c6" stroke="#fdf6e3" style="stroke-width: 1px;"></rect><rect y="43.2" width="14" height="14" fill="#f1e05a" stroke="#fdf6e3" style="stroke-width: 1px;"></rect><rect y="68.4" width="14" height="14" fill="#3572A5" stroke="#fdf6e3" style="stroke-width: 1px;"></rect><rect y="93.60000000000002" width="14" height="14" fill="#244776" stroke="#fdf6e3" style="stroke-width: 1px;"></rect><rect y="118.80000000000001" width="14" height="14" fill="#701516" stroke="#fdf6e3" style="stroke-width: 1px;"></rect><text x="16.8" y="30" style="fill: #586e75; font-size: 14px;">TypeScript</text><text x="16.8" y="55.2" style="fill: #586e75; font-size: 14px;">JavaScript</text><text x="16.8" y="80.4" style="fill: #586e75; font-size: 14px;">Python</text><text x="16.8" y="105.60000000000002" style="fill: #586e75; font-size: 14px;">CoffeeScript</text><text x="16.8" y="130.8" style="fill: #586e75; font-size: 14px;">Ruby</text></g><g transform="translate( 230, 80 )"><g class="arc"><path d="M3.67394039744206e-15,-60A60,60,0,1,1,-48.62418861089621,-35.152358127613454L-28.36411002302279,-20.505542241107847A35,35,0,1,0,2.1431318985078682e-15,-35Z" style="fill: #3178c6; stroke-width: 2px;" stroke="#fdf6e3"></path></g><g class="arc"><path d="M-48.62418861089621,-35.152358127613454A60,60,0,0,1,-30.28593226409066,-51.795388857454405L-17.66679382071955,-30.213976833515073A35,35,0,0,0,-28.36411002302279,-20.505542241107847Z" style="fill: #f1e05a; stroke-width: 2px;" stroke="#fdf6e3"></path></g><g class="arc"><path d="M-30.28593226409066,-51.795388857454405A60,60,0,0,1,-8.194416680222805,-59.43779551153362L-4.780076396796636,-34.67204738172795A35,35,0,0,0,-17.66679382071955,-30.213976833515073Z" style="fill: #3572A5; stroke-width: 2px;" stroke="#fdf6e3"></path></g><g class="arc"><path d="M-8.194416680222805,-59.43779551153362A60,60,0,0,1,-3.1165685062055317,-59.91900366950478L-1.8179982952865603,-34.952752140544455A35,35,0,0,0,-4.780076396796636,-34.67204738172795Z" style="fill: #244776; stroke-width: 2px;" stroke="#fdf6e3"></path></g><g class="arc"><path d="M-3.1165685062055317,-59.91900366950478A60,60,0,0,1,-6.431252637433369e-14,-60L-3.7515640385027985e-14,-35A35,35,0,0,0,-1.8179982952865603,-34.952752140544455Z" style="fill: #701516; stroke-width: 2px;" stroke="#fdf6e3"></path></g></g></g></svg>