<svg xmlns="http://www.w3.org/2000/svg" width="340" height="200" viewBox="0 0 340 200"><style>* {
          font-family: 'Segoe UI', Ubuntu, "Helvetica Neue", Sans-Serif
        }</style><rect x="1" y="1" rx="5" ry="5" height="99%" width="99.41176470588235%" stroke="#000000" stroke-width="1" fill="#1f2023" stroke-opacity="0"></rect><text x="30" y="40" style="font-size: 22px; fill: #e03c8a;">Top Languages by Commit</text><g transform="translate(0,40)"><g transform="translate(40,0)"><rect y="18" width="14" height="14" fill="#3178c6" stroke="#1f2023" style="stroke-width: 1px;"></rect><rect y="43.2" width="14" height="14" fill="#3572A5" stroke="#1f2023" style="stroke-width: 1px;"></rect><rect y="68.4" width="14" height="14" fill="#f1e05a" stroke="#1f2023" style="stroke-width: 1px;"></rect><rect y="93.60000000000002" width="14" height="14" fill="#e34c26" stroke="#1f2023" style="stroke-width: 1px;"></rect><rect y="118.80000000000001" width="14" height="14" fill="#244776" stroke="#1f2023" style="stroke-width: 1px;"></rect><text x="16.8" y="30" style="fill: #bcb28d; font-size: 14px;">TypeScript</text><text x="16.8" y="55.2" style="fill: #bcb28d; font-size: 14px;">Python</text><text x="16.8" y="80.4" style="fill: #bcb28d; font-size: 14px;">JavaScript</text><text x="16.8" y="105.60000000000002" style="fill: #bcb28d; font-size: 14px;">HTML</text><text x="16.8" y="130.8" style="fill: #bcb28d; font-size: 14px;">CoffeeScript</text></g><g transform="translate( 230, 80 )"><g class="arc"><path d="M3.67394039744206e-15,-60A60,60,0,1,1,-59.13130143534497,-10.172963705939845L-34.493259170617904,-5.934228828464909A35,35,0,1,0,2.1431318985078682e-15,-35Z" style="fill: #3178c6; stroke-width: 2px;" stroke="#1f2023"></path></g><g class="arc"><path d="M-59.13130143534497,-10.172963705939845A60,60,0,0,1,-44.628755699739244,-40.103293688835485L-26.033440824847894,-23.39358798515403A35,35,0,0,0,-34.493259170617904,-5.934228828464909Z" style="fill: #3572A5; stroke-width: 2px;" stroke="#1f2023"></path></g><g class="arc"><path d="M-44.628755699739244,-40.103293688835485A60,60,0,0,1,-20.685324120711012,-56.32155329908019L-12.066439070414757,-32.854239424463444A35,35,0,0,0,-26.033440824847894,-23.39358798515403Z" style="fill: #f1e05a; stroke-width: 2px;" stroke="#1f2023"></path></g><g class="arc"><path d="M-20.685324120711012,-56.32155329908019A60,60,0,0,1,-8.063537287309634,-59.455692464356744L-4.703730084263953,-34.682487270874766A35,35,0,0,0,-12.066439070414757,-32.854239424463444Z" style="fill: #e34c26; stroke-width: 2px;" stroke="#1f2023"></path></g><g class="arc"><path d="M-8.063537287309634,-59.455692464356744A60,60,0,0,1,-1.1021821192326178e-14,-60L-6.429395695523604e-15,-35A35,35,0,0,0,-4.703730084263953,-34.682487270874766Z" style="fill: #244776; stroke-width: 2px;" stroke="#1f2023"></path></g></g></g></svg>