<svg xmlns="http://www.w3.org/2000/svg" width="340" height="200" viewBox="0 0 340 200"><style>* {
          font-family: 'Segoe UI', Ubuntu, "Helvetica Neue", Sans-Serif
        }</style><rect x="1" y="1" rx="5" ry="5" height="99%" width="99.41176470588235%" stroke="#2e343b" stroke-width="1" fill="#0d1117" stroke-opacity="1"></rect><text x="30" y="40" style="font-size: 22px; fill: #0366d6;">Top Languages by Commit</text><g transform="translate(0,40)"><g transform="translate(40,0)"><rect y="18" width="14" height="14" fill="#3178c6" stroke="#0d1117" style="stroke-width: 1px;"></rect><rect y="43.2" width="14" height="14" fill="#3572A5" stroke="#0d1117" style="stroke-width: 1px;"></rect><rect y="68.4" width="14" height="14" fill="#f1e05a" stroke="#0d1117" style="stroke-width: 1px;"></rect><rect y="93.60000000000002" width="14" height="14" fill="#244776" stroke="#0d1117" style="stroke-width: 1px;"></rect><rect y="118.80000000000001" width="14" height="14" fill="#701516" stroke="#0d1117" style="stroke-width: 1px;"></rect><text x="16.8" y="30" style="fill: #77909c; font-size: 14px;">TypeScript</text><text x="16.8" y="55.2" style="fill: #77909c; font-size: 14px;">Python</text><text x="16.8" y="80.4" style="fill: #77909c; font-size: 14px;">JavaScript</text><text x="16.8" y="105.60000000000002" style="fill: #77909c; font-size: 14px;">CoffeeScript</text><text x="16.8" y="130.8" style="fill: #77909c; font-size: 14px;">Ruby</text></g><g transform="translate( 230, 80 )"><g class="arc"><path d="M3.67394039744206e-15,-60A60,60,0,1,1,-55.24543421066031,-23.408160946037682L-32.22650328955184,-13.654760551855315A35,35,0,1,0,2.1431318985078682e-15,-35Z" style="fill: #3178c6; stroke-width: 2px;" stroke="#0d1117"></path></g><g class="arc"><path d="M-55.24543421066031,-23.408160946037682A60,60,0,0,1,-35.51766485328456,-48.357992962588455L-20.71863783108266,-28.2088292281766A35,35,0,0,0,-32.22650328955184,-13.654760551855315Z" style="fill: #3572A5; stroke-width: 2px;" stroke="#0d1117"></path></g><g class="arc"><path d="M-35.51766485328456,-48.357992962588455A60,60,0,0,1,-11.181915906550914,-58.948831681881735L-6.5227842788213675,-34.38681848109768A35,35,0,0,0,-20.71863783108266,-28.2088292281766Z" style="fill: #f1e05a; stroke-width: 2px;" stroke="#0d1117"></path></g><g class="arc"><path d="M-11.181915906550914,-58.948831681881735A60,60,0,0,1,-4.262766137203818,-59.848381973613186L-2.4866135800355607,-34.91155615127436A35,35,0,0,0,-6.5227842788213675,-34.38681848109768Z" style="fill: #244776; stroke-width: 2px;" stroke="#0d1117"></path></g><g class="arc"><path d="M-4.262766137203818,-59.848381973613186A60,60,0,0,1,-1.1021821192326178e-14,-60L-6.429395695523604e-15,-35A35,35,0,0,0,-2.4866135800355607,-34.91155615127436Z" style="fill: #701516; stroke-width: 2px;" stroke="#0d1117"></path></g></g></g></svg>