<svg xmlns="http://www.w3.org/2000/svg" width="340" height="200" viewBox="0 0 340 200"><style>* {
          font-family: 'Segoe UI', Ubuntu, "Helvetica Neue", Sans-Serif
        }</style><rect x="1" y="1" rx="5" ry="5" height="99%" width="99.41176470588235%" stroke="#000000" stroke-width="1" fill="#040f0f" stroke-opacity="0"></rect><text x="30" y="40" style="font-size: 22px; fill: #2f97c1;">Top Languages by Commit</text><g transform="translate(0,40)"><g transform="translate(40,0)"><rect y="18" width="14" height="14" fill="#3178c6" stroke="#040f0f" style="stroke-width: 1px;"></rect><rect y="43.2" width="14" height="14" fill="#f1e05a" stroke="#040f0f" style="stroke-width: 1px;"></rect><rect y="68.4" width="14" height="14" fill="#3572A5" stroke="#040f0f" style="stroke-width: 1px;"></rect><rect y="93.60000000000002" width="14" height="14" fill="#244776" stroke="#040f0f" style="stroke-width: 1px;"></rect><rect y="118.80000000000001" width="14" height="14" fill="#701516" stroke="#040f0f" style="stroke-width: 1px;"></rect><text x="16.8" y="30" style="fill: #0cf574; font-size: 14px;">TypeScript</text><text x="16.8" y="55.2" style="fill: #0cf574; font-size: 14px;">JavaScript</text><text x="16.8" y="80.4" style="fill: #0cf574; font-size: 14px;">Python</text><text x="16.8" y="105.60000000000002" style="fill: #0cf574; font-size: 14px;">CoffeeScript</text><text x="16.8" y="130.8" style="fill: #0cf574; font-size: 14px;">Ruby</text></g><g transform="translate( 230, 80 )"><g class="arc"><path d="M3.67394039744206e-15,-60A60,60,0,1,1,-49.531303509255444,-33.862220433309155L-28.893260380399006,-19.75296191943034A35,35,0,1,0,2.1431318985078682e-15,-35Z" style="fill: #3178c6; stroke-width: 2px;" stroke="#040f0f"></path></g><g class="arc"><path d="M-49.531303509255444,-33.862220433309155A60,60,0,0,1,-31.04506335833864,-51.343977651490334L-18.109620292364205,-29.95065363003603A35,35,0,0,0,-28.893260380399006,-19.75296191943034Z" style="fill: #f1e05a; stroke-width: 2px;" stroke="#040f0f"></path></g><g class="arc"><path d="M-31.04506335833864,-51.343977651490334A60,60,0,0,1,-8.420902998341282,-59.406130935220204L-4.912193415699081,-34.653576378878455A35,35,0,0,0,-18.109620292364205,-29.95065363003603Z" style="fill: #3572A5; stroke-width: 2px;" stroke="#040f0f"></path></g><g class="arc"><path d="M-8.420902998341282,-59.406130935220204A60,60,0,0,1,-3.203192307897021,-59.914435314360006L-1.868528846273262,-34.95008726671001A35,35,0,0,0,-4.912193415699081,-34.653576378878455Z" style="fill: #244776; stroke-width: 2px;" stroke="#040f0f"></path></g><g class="arc"><path d="M-3.203192307897021,-59.914435314360006A60,60,0,0,1,-6.431252637433369e-14,-60L-3.7515640385027985e-14,-35A35,35,0,0,0,-1.868528846273262,-34.95008726671001Z" style="fill: #701516; stroke-width: 2px;" stroke="#040f0f"></path></g></g></g></svg>