<svg xmlns="http://www.w3.org/2000/svg" width="340" height="200" viewBox="0 0 340 200"><style>* {
          font-family: 'Segoe UI', Ubuntu, "Helvetica Neue", Sans-Serif
        }</style><rect x="1" y="1" rx="5" ry="5" height="99%" width="99.41176470588235%" stroke="#000000" stroke-width="1" fill="#0c1014" stroke-opacity="1"></rect><text x="30" y="40" style="font-size: 22px; fill: #2aa889;">Top Languages by Commit</text><g transform="translate(0,40)"><g transform="translate(40,0)"><rect y="18" width="14" height="14" fill="#3178c6" stroke="#0c1014" style="stroke-width: 1px;"></rect><rect y="43.2" width="14" height="14" fill="#3572A5" stroke="#0c1014" style="stroke-width: 1px;"></rect><rect y="68.4" width="14" height="14" fill="#f1e05a" stroke="#0c1014" style="stroke-width: 1px;"></rect><rect y="93.60000000000002" width="14" height="14" fill="#e34c26" stroke="#0c1014" style="stroke-width: 1px;"></rect><rect y="118.80000000000001" width="14" height="14" fill="#244776" stroke="#0c1014" style="stroke-width: 1px;"></rect><text x="16.8" y="30" style="fill: #99d1ce; font-size: 14px;">TypeScript</text><text x="16.8" y="55.2" style="fill: #99d1ce; font-size: 14px;">Python</text><text x="16.8" y="80.4" style="fill: #99d1ce; font-size: 14px;">JavaScript</text><text x="16.8" y="105.60000000000002" style="fill: #99d1ce; font-size: 14px;">HTML</text><text x="16.8" y="130.8" style="fill: #99d1ce; font-size: 14px;">CoffeeScript</text></g><g transform="translate( 230, 80 )"><g class="arc"><path d="M3.67394039744206e-15,-60A60,60,0,1,1,-59.448396837771874,-8.11714934067345L-34.678231488700256,-4.735003782059512A35,35,0,1,0,2.1431318985078682e-15,-35Z" style="fill: #3178c6; stroke-width: 2px;" stroke="#0c1014"></path></g><g class="arc"><path d="M-59.448396837771874,-8.11714934067345A60,60,0,0,1,-44.38912372513096,-40.368374935275966L-25.89365550632639,-23.548218712244314A35,35,0,0,0,-34.678231488700256,-4.735003782059512Z" style="fill: #3572A5; stroke-width: 2px;" stroke="#0c1014"></path></g><g class="arc"><path d="M-44.38912372513096,-40.368374935275966A60,60,0,0,1,-20.544497825709477,-56.37307521405426L-11.98429039833053,-32.88429387486499A35,35,0,0,0,-25.89365550632639,-23.548218712244314Z" style="fill: #f1e05a; stroke-width: 2px;" stroke="#0c1014"></path></g><g class="arc"><path d="M-20.544497825709477,-56.37307521405426A60,60,0,0,1,-8.006624937543561,-59.463383330495965L-4.670531213567077,-34.68697360945598A35,35,0,0,0,-11.98429039833053,-32.88429387486499Z" style="fill: #e34c26; stroke-width: 2px;" stroke="#0c1014"></path></g><g class="arc"><path d="M-8.006624937543561,-59.463383330495965A60,60,0,0,1,-1.1021821192326178e-14,-60L-6.429395695523604e-15,-35A35,35,0,0,0,-4.670531213567077,-34.68697360945598Z" style="fill: #244776; stroke-width: 2px;" stroke="#0c1014"></path></g></g></g></svg>