<svg xmlns="http://www.w3.org/2000/svg" width="340" height="200" viewBox="0 0 340 200"><style>* {
          font-family: 'Segoe UI', Ubuntu, "Helvetica Neue", Sans-Serif
        }</style><rect x="1" y="1" rx="5" ry="5" height="99%" width="99.41176470588235%" stroke="#000000" stroke-width="1" fill="#291b3e" stroke-opacity="0"></rect><text x="30" y="40" style="font-size: 22px; fill: #ff64da;">Top Languages by Repo</text><g transform="translate(0,40)"><g transform="translate(40,0)"><rect y="18" width="14" height="14" fill="#3178c6" stroke="#291b3e" style="stroke-width: 1px;"></rect><rect y="43.2" width="14" height="14" fill="#f1e05a" stroke="#291b3e" style="stroke-width: 1px;"></rect><rect y="68.4" width="14" height="14" fill="#701516" stroke="#291b3e" style="stroke-width: 1px;"></rect><rect y="93.60000000000002" width="14" height="14" fill="#663399" stroke="#291b3e" style="stroke-width: 1px;"></rect><rect y="118.80000000000001" width="14" height="14" fill="#41b883" stroke="#291b3e" style="stroke-width: 1px;"></rect><text x="16.8" y="30" style="fill: #ffffff; font-size: 14px;">TypeScript</text><text x="16.8" y="55.2" style="fill: #ffffff; font-size: 14px;">JavaScript</text><text x="16.8" y="80.4" style="fill: #ffffff; font-size: 14px;">Ruby</text><text x="16.8" y="105.60000000000002" style="fill: #ffffff; font-size: 14px;">CSS</text><text x="16.8" y="130.8" style="fill: #ffffff; font-size: 14px;">Vue</text></g><g transform="translate( 230, 80 )"><g class="arc"><path d="M3.67394039744206e-15,-60A60,60,0,0,1,4.537724753067407,59.828162716779126L2.6470061059559877,34.899761584787825A35,35,0,0,0,2.1431318985078682e-15,-35Z" style="fill: #3178c6; stroke-width: 2px;" stroke="#291b3e"></path></g><g class="arc"><path d="M4.537724753067407,59.828162716779126A60,60,0,0,1,-51.1880522116366,-31.301490552029062L-29.859697123454687,-18.259202822016952A35,35,0,0,0,2.6470061059559877,34.899761584787825Z" style="fill: #f1e05a; stroke-width: 2px;" stroke="#291b3e"></path></g><g class="arc"><path d="M-51.1880522116366,-31.301490552029062A60,60,0,0,1,-37.78863132169629,-46.604928310565114L-22.043368270989507,-27.186208181162982A35,35,0,0,0,-29.859697123454687,-18.259202822016952Z" style="fill: #701516; stroke-width: 2px;" stroke="#291b3e"></path></g><g class="arc"><path d="M-37.78863132169629,-46.604928310565114A60,60,0,0,1,-20.046250289843428,-56.55216927154034L-11.693646002408666,-32.988765408398535A35,35,0,0,0,-22.043368270989507,-27.186208181162982Z" style="fill: #663399; stroke-width: 2px;" stroke="#291b3e"></path></g><g class="arc"><path d="M-20.046250289843428,-56.55216927154034A60,60,0,0,1,-6.431252637433369e-14,-60L-3.7515640385027985e-14,-35A35,35,0,0,0,-11.693646002408666,-32.988765408398535Z" style="fill: #41b883; stroke-width: 2px;" stroke="#291b3e"></path></g></g></g></svg>