<svg xmlns="http://www.w3.org/2000/svg" width="340" height="200" viewBox="0 0 340 200"><style>* {
          font-family: 'Segoe UI', Ubuntu, "Helvetica Neue", Sans-Serif
        }</style><g class="gpsc-root"><rect x="1" y="1" rx="5" ry="5" height="99%" width="99.41176470588235%" stroke="#e5e9f0" stroke-width="1" fill="#eceff4" stroke-opacity="1"></rect><text x="30" y="40" class="gpsc-item" style="--gpsc-i: 0; font-size: 22px; fill: #3b4252;">Top Languages by Repo</text><g transform="translate(0,40)"><g transform="translate(40,0)"><rect y="18" width="14" height="14" class="gpsc-item" style="--gpsc-i: 0; stroke-width: 1px;" fill="#3178c6" stroke="#eceff4"></rect><rect y="43.2" width="14" height="14" class="gpsc-item" style="--gpsc-i: 1; stroke-width: 1px;" fill="#f1e05a" stroke="#eceff4"></rect><rect y="68.4" width="14" height="14" class="gpsc-item" style="--gpsc-i: 2; stroke-width: 1px;" fill="#701516" stroke="#eceff4"></rect><rect y="93.60000000000002" width="14" height="14" class="gpsc-item" style="--gpsc-i: 3; stroke-width: 1px;" fill="#663399" stroke="#eceff4"></rect><rect y="118.80000000000001" width="14" height="14" class="gpsc-item" style="--gpsc-i: 4; stroke-width: 1px;" fill="#41b883" stroke="#eceff4"></rect><text x="16.8" y="30" class="gpsc-item" style="--gpsc-i: 0; fill: #2e3440; font-size: 14px;">TypeScript</text><text x="16.8" y="55.2" class="gpsc-item" style="--gpsc-i: 1; fill: #2e3440; font-size: 14px;">JavaScript</text><text x="16.8" y="80.4" class="gpsc-item" style="--gpsc-i: 2; fill: #2e3440; font-size: 14px;">Ruby</text><text x="16.8" y="105.60000000000002" class="gpsc-item" style="--gpsc-i: 3; fill: #2e3440; font-size: 14px;">CSS</text><text x="16.8" y="130.8" class="gpsc-item" style="--gpsc-i: 4; fill: #2e3440; font-size: 14px;">Vue</text></g><g transform="translate( 230, 80 )"><g class="arc" style="--gpsc-i: 0;"><path d="M3.67394039744206e-15,-60A60,60,0,1,1,-11.142777964021684,58.95624224155159L-6.499953812345983,34.391141307571765A35,35,0,1,0,2.1431318985078682e-15,-35Z" style="fill: #3178c6; stroke-width: 2px;" stroke="#eceff4"></path></g><g class="arc" style="--gpsc-i: 1;"><path d="M-11.142777964021684,58.95624224155159A60,60,0,0,1,-47.62703282973687,-36.49199561321861L-27.782435817346506,-21.286997441044193A35,35,0,0,0,-6.499953812345983,34.391141307571765Z" style="fill: #f1e05a; stroke-width: 2px;" stroke="#eceff4"></path></g><g class="arc" style="--gpsc-i: 2;"><path d="M-47.62703282973687,-36.49199561321861A60,60,0,0,1,-34.43776651395593,-49.13288346444015L-20.088697133140958,-28.660848687590086A35,35,0,0,0,-27.782435817346506,-21.286997441044193Z" style="fill: #701516; stroke-width: 2px;" stroke="#eceff4"></path></g><g class="arc" style="--gpsc-i: 3;"><path d="M-34.43776651395593,-49.13288346444015A60,60,0,0,1,-18.05584382040324,-57.21876006986874L-10.53257556190189,-33.377610040756764A35,35,0,0,0,-20.088697133140958,-28.660848687590086Z" style="fill: #663399; stroke-width: 2px;" stroke="#eceff4"></path></g><g class="arc" style="--gpsc-i: 4;"><path d="M-18.05584382040324,-57.21876006986874A60,60,0,0,1,9.555958917168885e-14,-60L5.5743093683485165e-14,-35A35,35,0,0,0,-10.53257556190189,-33.377610040756764Z" style="fill: #41b883; stroke-width: 2px;" stroke="#eceff4"></path></g></g></g></g></svg>