<svg xmlns="http://www.w3.org/2000/svg" width="340" height="200" viewBox="0 0 340 200"><style>* {
          font-family: 'Segoe UI', Ubuntu, "Helvetica Neue", Sans-Serif
        }</style><rect x="1" y="1" rx="5" ry="5" height="99%" width="99.41176470588235%" stroke="#000000" stroke-width="1" fill="#282c34" stroke-opacity="0"></rect><text x="30" y="40" style="font-size: 22px; fill: #e4bf7a;">Top Languages by Commit</text><g transform="translate(0,40)"><g transform="translate(40,0)"><rect y="18" width="14" height="14" fill="#3178c6" stroke="#282c34" style="stroke-width: 1px;"></rect><rect y="43.2" width="14" height="14" fill="#3572A5" stroke="#282c34" style="stroke-width: 1px;"></rect><rect y="68.4" width="14" height="14" fill="#f1e05a" stroke="#282c34" style="stroke-width: 1px;"></rect><rect y="93.60000000000002" width="14" height="14" fill="#e34c26" stroke="#282c34" style="stroke-width: 1px;"></rect><rect y="118.80000000000001" width="14" height="14" fill="#244776" stroke="#282c34" style="stroke-width: 1px;"></rect><text x="16.8" y="30" style="fill: #df6d74; font-size: 14px;">TypeScript</text><text x="16.8" y="55.2" style="fill: #df6d74; font-size: 14px;">Python</text><text x="16.8" y="80.4" style="fill: #df6d74; font-size: 14px;">JavaScript</text><text x="16.8" y="105.60000000000002" style="fill: #df6d74; font-size: 14px;">HTML</text><text x="16.8" y="130.8" style="fill: #df6d74; font-size: 14px;">CoffeeScript</text></g><g transform="translate( 230, 80 )"><g class="arc"><path d="M3.67394039744206e-15,-60A60,60,0,1,1,-59.09674036664654,-10.37185027066863L-34.47309854721048,-6.050245991223369A35,35,0,1,0,2.1431318985078682e-15,-35Z" style="fill: #3178c6; stroke-width: 2px;" stroke="#282c34"></path></g><g class="arc"><path d="M-59.09674036664654,-10.37185027066863A60,60,0,0,1,-43.14213556037454,-41.69839492462829L-25.166245743551816,-24.32406370603317A35,35,0,0,0,-34.47309854721048,-6.050245991223369Z" style="fill: #3572A5; stroke-width: 2px;" stroke="#282c34"></path></g><g class="arc"><path d="M-43.14213556037454,-41.69839492462829A60,60,0,0,1,-19.823988945901792,-56.630464083148425L-11.563993551776045,-33.03443738183658A35,35,0,0,0,-25.166245743551816,-24.32406370603317Z" style="fill: #f1e05a; stroke-width: 2px;" stroke="#282c34"></path></g><g class="arc"><path d="M-19.823988945901792,-56.630464083148425A60,60,0,0,1,-7.716131245241716,-59.50177576010824L-4.501076559724334,-34.709369193396476A35,35,0,0,0,-11.563993551776045,-33.03443738183658Z" style="fill: #e34c26; stroke-width: 2px;" stroke="#282c34"></path></g><g class="arc"><path d="M-7.716131245241716,-59.50177576010824A60,60,0,0,1,-1.1021821192326178e-14,-60L-6.429395695523604e-15,-35A35,35,0,0,0,-4.501076559724334,-34.709369193396476Z" style="fill: #244776; stroke-width: 2px;" stroke="#282c34"></path></g></g></g></svg>