<svg xmlns="http://www.w3.org/2000/svg" width="340" height="200" viewBox="0 0 340 200"><style>* {
          font-family: 'Segoe UI', Ubuntu, "Helvetica Neue", Sans-Serif
        }</style><g class="gpsc-root"><rect x="1" y="1" rx="5" ry="5" height="99%" width="99.41176470588235%" stroke="#170f0c" stroke-width="1" fill="#170f0c" stroke-opacity="1"></rect><text x="30" y="40" class="gpsc-item" style="--gpsc-i: 0; font-size: 22px; fill: #da7885;">Top Languages by Repo</text><g transform="translate(0,40)"><g transform="translate(40,0)"><rect y="18" width="14" height="14" class="gpsc-item" style="--gpsc-i: 0; stroke-width: 1px;" fill="#3178c6" stroke="#170f0c"></rect><rect y="43.2" width="14" height="14" class="gpsc-item" style="--gpsc-i: 1; stroke-width: 1px;" fill="#f1e05a" stroke="#170f0c"></rect><rect y="68.4" width="14" height="14" class="gpsc-item" style="--gpsc-i: 2; stroke-width: 1px;" fill="#701516" stroke="#170f0c"></rect><rect y="93.60000000000002" width="14" height="14" class="gpsc-item" style="--gpsc-i: 3; stroke-width: 1px;" fill="#663399" stroke="#170f0c"></rect><rect y="118.80000000000001" width="14" height="14" class="gpsc-item" style="--gpsc-i: 4; stroke-width: 1px;" fill="#41b883" stroke="#170f0c"></rect><text x="16.8" y="30" class="gpsc-item" style="--gpsc-i: 0; fill: #e1b2a2; font-size: 14px;">TypeScript</text><text x="16.8" y="55.2" class="gpsc-item" style="--gpsc-i: 1; fill: #e1b2a2; font-size: 14px;">JavaScript</text><text x="16.8" y="80.4" class="gpsc-item" style="--gpsc-i: 2; fill: #e1b2a2; font-size: 14px;">Ruby</text><text x="16.8" y="105.60000000000002" class="gpsc-item" style="--gpsc-i: 3; fill: #e1b2a2; font-size: 14px;">CSS</text><text x="16.8" y="130.8" class="gpsc-item" style="--gpsc-i: 4; fill: #e1b2a2; font-size: 14px;">Vue</text></g><g transform="translate( 230, 80 )"><g class="arc" style="--gpsc-i: 0;"><path d="M3.67394039744206e-15,-60A60,60,0,1,1,-1.0770596278858093,59.99033207574349L-0.6282847829333889,34.99436037751703A35,35,0,1,0,2.1431318985078682e-15,-35Z" style="fill: #3178c6; stroke-width: 2px;" stroke="#170f0c"></path></g><g class="arc" style="--gpsc-i: 1;"><path d="M-1.0770596278858093,59.99033207574349A60,60,0,0,1,-49.47297773442846,-33.947378014932845L-28.859237011749936,-19.802637175377495A35,35,0,0,0,-0.6282847829333889,34.99436037751703Z" style="fill: #f1e05a; stroke-width: 2px;" stroke="#170f0c"></path></g><g class="arc" style="--gpsc-i: 2;"><path d="M-49.47297773442846,-33.947378014932845A60,60,0,0,1,-36.13279201716496,-47.90011838236206L-21.077462010012894,-27.941735723044534A35,35,0,0,0,-28.859237011749936,-19.802637175377495Z" style="fill: #701516; stroke-width: 2px;" stroke="#170f0c"></path></g><g class="arc" style="--gpsc-i: 3;"><path d="M-36.13279201716496,-47.90011838236206A60,60,0,0,1,-19.05246568109071,-56.89467067723356L-11.11393831396958,-33.18855789505292A35,35,0,0,0,-21.077462010012894,-27.941735723044534Z" style="fill: #663399; stroke-width: 2px;" stroke="#170f0c"></path></g><g class="arc" style="--gpsc-i: 4;"><path d="M-19.05246568109071,-56.89467067723356A60,60,0,0,1,-6.431252637433369e-14,-60L-3.7515640385027985e-14,-35A35,35,0,0,0,-11.11393831396958,-33.18855789505292Z" style="fill: #41b883; stroke-width: 2px;" stroke="#170f0c"></path></g></g></g></g></svg>