<svg xmlns="http://www.w3.org/2000/svg" width="340" height="200" viewBox="0 0 340 200"><style>* {
          font-family: 'Segoe UI', Ubuntu, "Helvetica Neue", Sans-Serif
        }</style><g class="gpsc-root"><rect x="1" y="1" rx="5" ry="5" height="99%" width="99.41176470588235%" stroke="#170f0c" stroke-width="1" fill="#170f0c" stroke-opacity="1"></rect><text x="30" y="40" class="gpsc-item" style="--gpsc-i: 0; font-size: 22px; fill: #da7885;">Top Languages by Commit</text><g transform="translate(0,40)"><g transform="translate(40,0)"><rect y="18" width="14" height="14" class="gpsc-item" style="--gpsc-i: 0; stroke-width: 1px;" fill="#3178c6" stroke="#170f0c"></rect><rect y="43.2" width="14" height="14" class="gpsc-item" style="--gpsc-i: 1; stroke-width: 1px;" fill="#f1e05a" stroke="#170f0c"></rect><rect y="68.4" width="14" height="14" class="gpsc-item" style="--gpsc-i: 2; stroke-width: 1px;" fill="#3572A5" stroke="#170f0c"></rect><rect y="93.60000000000002" width="14" height="14" class="gpsc-item" style="--gpsc-i: 3; stroke-width: 1px;" fill="#244776" stroke="#170f0c"></rect><rect y="118.80000000000001" width="14" height="14" class="gpsc-item" style="--gpsc-i: 4; stroke-width: 1px;" fill="#701516" stroke="#170f0c"></rect><text x="16.8" y="30" class="gpsc-item" style="--gpsc-i: 0; fill: #e1b2a2; font-size: 14px;">TypeScript</text><text x="16.8" y="55.2" class="gpsc-item" style="--gpsc-i: 1; fill: #e1b2a2; font-size: 14px;">JavaScript</text><text x="16.8" y="80.4" class="gpsc-item" style="--gpsc-i: 2; fill: #e1b2a2; font-size: 14px;">Python</text><text x="16.8" y="105.60000000000002" class="gpsc-item" style="--gpsc-i: 3; fill: #e1b2a2; font-size: 14px;">CoffeeScript</text><text x="16.8" y="130.8" class="gpsc-item" style="--gpsc-i: 4; fill: #e1b2a2; font-size: 14px;">Ruby</text></g><g transform="translate( 230, 80 )"><g class="arc" style="--gpsc-i: 0;"><path d="M3.67394039744206e-15,-60A60,60,0,1,1,-45.25745569914116,-39.392419367694025L-26.400182491165676,-22.97891129782151A35,35,0,1,0,2.1431318985078682e-15,-35Z" style="fill: #3178c6; stroke-width: 2px;" stroke="#170f0c"></path></g><g class="arc" style="--gpsc-i: 1;"><path d="M-45.25745569914116,-39.392419367694025A60,60,0,0,1,-24.555428889640012,-54.74514510023544L-14.32400018562334,-31.93466797513734A35,35,0,0,0,-26.400182491165676,-22.97891129782151Z" style="fill: #f1e05a; stroke-width: 2px;" stroke="#170f0c"></path></g><g class="arc" style="--gpsc-i: 2;"><path d="M-24.555428889640012,-54.74514510023544A60,60,0,0,1,-6.537469933464327,-59.64278235351743L-3.8135241278541905,-34.79162303955184A35,35,0,0,0,-14.32400018562334,-31.93466797513734Z" style="fill: #3572A5; stroke-width: 2px;" stroke="#170f0c"></path></g><g class="arc" style="--gpsc-i: 3;"><path d="M-6.537469933464327,-59.64278235351743A60,60,0,0,1,-2.4839527668923145,-59.948561105766736L-1.4489724473538501,-34.96999397836393A35,35,0,0,0,-3.8135241278541905,-34.79162303955184Z" style="fill: #244776; stroke-width: 2px;" stroke="#170f0c"></path></g><g class="arc" style="--gpsc-i: 4;"><path d="M-2.4839527668923145,-59.948561105766736A60,60,0,0,1,-1.1021821192326178e-14,-60L-6.429395695523604e-15,-35A35,35,0,0,0,-1.4489724473538501,-34.96999397836393Z" style="fill: #701516; stroke-width: 2px;" stroke="#170f0c"></path></g></g></g></g></svg>