<svg xmlns="http://www.w3.org/2000/svg" width="340" height="200" viewBox="0 0 340 200"><style>* {
          font-family: 'Segoe UI', Ubuntu, "Helvetica Neue", Sans-Serif
        }</style><rect x="1" y="1" rx="5" ry="5" height="99%" width="99.41176470588235%" stroke="#e4e2e2" stroke-width="1" fill="#ffffff" stroke-opacity="1"></rect><text x="30" y="40" style="font-size: 22px; fill: #0366d6;">Top Languages by Commit</text><g transform="translate(0,40)"><g transform="translate(40,0)"><rect y="18" width="14" height="14" fill="#3178c6" stroke="#ffffff" style="stroke-width: 1px;"></rect><rect y="43.2" width="14" height="14" fill="#f1e05a" stroke="#ffffff" style="stroke-width: 1px;"></rect><rect y="68.4" width="14" height="14" fill="#3572A5" stroke="#ffffff" style="stroke-width: 1px;"></rect><rect y="93.60000000000002" width="14" height="14" fill="#244776" stroke="#ffffff" style="stroke-width: 1px;"></rect><rect y="118.80000000000001" width="14" height="14" fill="#701516" stroke="#ffffff" style="stroke-width: 1px;"></rect><text x="16.8" y="30" style="fill: #586069; font-size: 14px;">TypeScript</text><text x="16.8" y="55.2" style="fill: #586069; font-size: 14px;">JavaScript</text><text x="16.8" y="80.4" style="fill: #586069; font-size: 14px;">Python</text><text x="16.8" y="105.60000000000002" style="fill: #586069; font-size: 14px;">CoffeeScript</text><text x="16.8" y="130.8" style="fill: #586069; font-size: 14px;">Ruby</text></g><g transform="translate( 230, 80 )"><g class="arc"><path d="M3.67394039744206e-15,-60A60,60,0,1,1,-43.70458773949611,-41.10850289807069L-25.494342848039402,-23.97996002387457A35,35,0,1,0,2.1431318985078682e-15,-35Z" style="fill: #3178c6; stroke-width: 2px;" stroke="#ffffff"></path></g><g class="arc"><path d="M-43.70458773949611,-41.10850289807069A60,60,0,0,1,-26.473266074593234,-53.843905721481526L-15.44273854351272,-31.408945004197555A35,35,0,0,0,-25.494342848039402,-23.97996002387457Z" style="fill: #f1e05a; stroke-width: 2px;" stroke="#ffffff"></path></g><g class="arc"><path d="M-26.473266074593234,-53.843905721481526A60,60,0,0,1,-7.0826307527357875,-59.58050303262302L-4.131534605762543,-34.755293435696764A35,35,0,0,0,-15.44273854351272,-31.408945004197555Z" style="fill: #3572A5; stroke-width: 2px;" stroke="#ffffff"></path></g><g class="arc"><path d="M-7.0826307527357875,-59.58050303262302A60,60,0,0,1,-2.6918898210308533,-59.93958399247888L-1.5702690622679978,-34.964757328946014A35,35,0,0,0,-4.131534605762543,-34.755293435696764Z" style="fill: #244776; stroke-width: 2px;" stroke="#ffffff"></path></g><g class="arc"><path d="M-2.6918898210308533,-59.93958399247888A60,60,0,0,1,4.226888398968133e-14,-60L2.4656848993980778e-14,-35A35,35,0,0,0,-1.5702690622679978,-34.964757328946014Z" style="fill: #701516; stroke-width: 2px;" stroke="#ffffff"></path></g></g></g></svg>