<svg xmlns="http://www.w3.org/2000/svg" width="340" height="200" viewBox="0 0 340 200"><style>* {
          font-family: 'Segoe UI', Ubuntu, "Helvetica Neue", Sans-Serif
        }</style><rect x="1" y="1" rx="5" ry="5" height="99%" width="99.41176470588235%" stroke="#e4e2e2" stroke-width="1" fill="#ffffff" stroke-opacity="1"></rect><text x="30" y="40" style="font-size: 22px; fill: #41b883;">Top Languages by Commit</text><g transform="translate(0,40)"><g transform="translate(40,0)"><rect y="18" width="14" height="14" fill="#3178c6" stroke="#ffffff" style="stroke-width: 1px;"></rect><rect y="43.2" width="14" height="14" fill="#f1e05a" stroke="#ffffff" style="stroke-width: 1px;"></rect><rect y="68.4" width="14" height="14" fill="#3572A5" stroke="#ffffff" style="stroke-width: 1px;"></rect><rect y="93.60000000000002" width="14" height="14" fill="#244776" stroke="#ffffff" style="stroke-width: 1px;"></rect><rect y="118.80000000000001" width="14" height="14" fill="#701516" stroke="#ffffff" style="stroke-width: 1px;"></rect><text x="16.8" y="30" style="fill: #000000; font-size: 14px;">TypeScript</text><text x="16.8" y="55.2" style="fill: #000000; font-size: 14px;">JavaScript</text><text x="16.8" y="80.4" style="fill: #000000; font-size: 14px;">Python</text><text x="16.8" y="105.60000000000002" style="fill: #000000; font-size: 14px;">CoffeeScript</text><text x="16.8" y="130.8" style="fill: #000000; font-size: 14px;">Ruby</text></g><g transform="translate( 230, 80 )"><g class="arc"><path d="M3.67394039744206e-15,-60A60,60,0,1,1,-44.72351390567439,-39.99759122658451L-26.088716444976725,-23.33192821550763A35,35,0,1,0,2.1431318985078682e-15,-35Z" style="fill: #3178c6; stroke-width: 2px;" stroke="#ffffff"></path></g><g class="arc"><path d="M-44.72351390567439,-39.99759122658451A60,60,0,0,1,-27.22818769727728,-53.46611819387899L-15.883109490078414,-31.188568946429413A35,35,0,0,0,-26.088716444976725,-23.33192821550763Z" style="fill: #f1e05a; stroke-width: 2px;" stroke="#ffffff"></path></g><g class="arc"><path d="M-27.22818769727728,-53.46611819387899A60,60,0,0,1,-7.299637648767505,-59.55430538757627L-4.258121961781045,-34.74001147608616A35,35,0,0,0,-15.883109490078414,-31.188568946429413Z" style="fill: #3572A5; stroke-width: 2px;" stroke="#ffffff"></path></g><g class="arc"><path d="M-7.299637648767505,-59.55430538757627A60,60,0,0,1,-2.77471438858415,-59.93580699433173L-1.6185833933407543,-34.96255408002684A35,35,0,0,0,-4.258121961781045,-34.74001147608616Z" style="fill: #244776; stroke-width: 2px;" stroke="#ffffff"></path></g><g class="arc"><path d="M-2.77471438858415,-59.93580699433173A60,60,0,0,1,4.226888398968133e-14,-60L2.4656848993980778e-14,-35A35,35,0,0,0,-1.6185833933407543,-34.96255408002684Z" style="fill: #701516; stroke-width: 2px;" stroke="#ffffff"></path></g></g></g></svg>